<?xml version="1.0" encoding="utf-8"?>
<!-- Generator: Adobe Illustrator 23.0.1, SVG Export Plug-In . SVG Version: 6.00 Build 0)  -->
<svg version="1.1" id="Layer_1" xmlns="http://www.w3.org/2000/svg" xmlns:xlink="http://www.w3.org/1999/xlink" x="0px" y="0px"
	 viewBox="0 0 2330 553" style="enable-background:new 0 0 2330 553;" xml:space="preserve">
<style type="text/css">
	.st0{fill:#00B0E0;}
	.st1{fill:#88D0F5;}
</style>
<g>
	<g>
		<g>
			<path class="st0" d="M2250.9,198.4c0,31.1,0.3,62.1-0.2,93.2c-0.1,9.5-1,19.3-3.6,28.3c-9.9,35.4-35.5,53.3-70.2,59.9
				c-5.8,1.1-11.9,1.4-17.8,1.4c-55.2,0.1-110.5,0-165.7,0.1c-16.2,0-32-2.3-46.4-10c-24.3-13-37.2-34.3-42.7-60.5
				c-1.4-6.7-2-13.7-2-20.5c-0.1-62.1-0.3-124.3,0.1-186.4c0.1-10.7,1.3-21.8,4.4-32c9.7-32,33.2-49.1,64.8-56.2
				c8.6-1.9,17.7-2.7,26.6-2.8c54.3-0.2,108.6-0.2,162.9-0.1c14.3,0,28.2,2.5,41.1,8.6c26.6,12.4,40.7,34.5,46.6,62.3
				c1.4,6.8,2,14,2,21C2251,135.9,2250.9,167.1,2250.9,198.4z M1933.7,195.8c0,30.8,0,61.5,0,92.3c0,3.9,0.2,7.8,0.7,11.7
				c2.9,25.5,18.2,43.3,41.8,48.4c5.3,1.1,10.9,1.5,16.3,1.5c55.7,0.1,111.4,0.1,167.1,0c4.2,0,8.5-0.3,12.6-1.1
				c22.4-4.2,39-15.5,44.9-38.7c1.7-6.4,2.2-13.3,2.2-20c0.2-61.5,0.1-123,0.1-184.5c0-4.1-0.2-8.2-0.9-12.2
				c-3.9-22.6-14.7-39.7-38-46.1c-6.6-1.8-13.6-2.4-20.5-2.4c-55.4-0.2-110.8-0.1-166.2-0.1c-4.2,0-8.5,0.3-12.6,1
				c-22.6,4.1-39.4,15.4-45.4,38.7c-1.6,6.3-2.2,13-2.2,19.6C1933.5,134.6,1933.7,165.2,1933.7,195.8z"/>
		</g>
		<g>
			<path class="st0" d="M1515.1,151.4c0-2.4,0-4.1,0-5.7c0-25.3,0-50.5,0-75.8c0-14.9,10.2-25.5,24.3-25.5
				c13.8,0,23.9,10.7,23.9,25.4c0,86.3,0,172.6,0,258.9c0,13.6-7.6,23.6-19.4,25.8c-12.4,2.3-22.5-3.9-27.8-17
				c-0.1-0.3-0.3-0.5-0.7-1.1c-28.1,17.9-58.3,23.7-90.7,13.9c-23.8-7.2-42.7-21.5-56.9-41.8c-29.7-42.5-26.2-100.2,8-139
				C1409.3,131.6,1466.5,119.7,1515.1,151.4z M1455.7,307.6c7.2-1.8,14.9-2.7,21.6-5.6c39.4-16.5,50.4-69.6,21.3-101
				c-25.3-27.2-64.9-26-88.5,2.7c-18.5,22.4-18.8,57.1-0.5,79.8C1421.3,298.1,1436.5,306.2,1455.7,307.6z"/>
		</g>
		<g>
			<path class="st0" d="M506.3,336.4c-52.9,34.3-111.1,16.9-142-20.3c-33-39.7-34.8-97.5-3.7-139.2c16.9-22.7,39.3-37.2,67.3-42.2
				c27.8-5,53.5,1,77.9,16.8c0-2.5,0-4.2,0-5.8c0-25.9-0.1-51.8,0.1-77.7c0.1-12.1,9.2-22.1,20.9-23.5c12.4-1.5,23.2,5.7,26.5,17.6
				c0.6,2.1,0.8,4.3,0.8,6.5c0,87.2,0.1,174.5,0,261.7c0,11.5-7.2,20.9-17.8,23.7c-10.1,2.7-21.1-1.6-26.5-10.6
				C508.3,341.4,507.5,339,506.3,336.4z M385.7,244.6c1.8,7.7,2.8,15.8,5.5,23.1c14.3,38.2,60.6,51,91.3,25.6
				c25.1-20.8,30.8-57.5,12.7-84.5c-12.8-19.1-30.9-29.5-54.4-27C409.1,185.2,386.8,211.6,385.7,244.6z"/>
		</g>
		<g>
			<path class="st0" d="M1141.7,260c4.6,21.2,16.7,35.2,35.6,43.4c19.3,8.4,38.8,7.9,58.1,0.1c4.3-1.7,8.3-4.5,12-7.3
				c13.6-10.4,32.5-5.2,36.6,10.4c2,7.7,0.1,14.2-5.9,19.6c-23,20.8-50.4,29.5-80.9,28.5c-55.1-1.8-100.1-44-105.5-98.6
				c-5.7-56.8,30-108.3,84.4-120.5c58.1-13,116.3,22,128.2,85c1.1,6,1.8,12.1,1.8,18.2c0,10.6-7,18.5-17.4,20.3
				c-3.1,0.5-6.2,0.7-9.4,0.7c-43.8,0-87.6,0-131.4,0C1146.1,260,1144.3,260,1141.7,260z M1264.8,222c-7.7-26.7-41.9-49.1-70.3-46.4
				c-26.9,2.5-52.5,24.1-54.6,46.4C1181.4,222,1222.9,222,1264.8,222z"/>
		</g>
		<g>
			<path class="st0" d="M167.4,146.6c11.6-6.9,23.7-11.2,36.8-13c48.3-6.4,96.4,30.9,102,79.4c0.6,5,0.9,10,0.9,15
				c0.1,34.2,0.1,68.4,0,102.6c0,15.5-12.6,26.4-27.2,23.8c-11.3-2-19.4-11.9-19.4-24.3c-0.1-27.3,0-54.6,0-81.9
				c0-7.5,0.1-15.1,0-22.6c-0.3-25.2-20.4-45.1-45.8-45.2c-24.8-0.1-44.5,19.5-44.7,45c-0.2,35,0,70-0.1,105
				c-0.1,16.7-16.5,28.5-32.1,23.1c-8.7-3.1-13.9-9.4-15.4-18.6c-0.3-1.5-0.4-3.1-0.4-4.7c0-57.6-0.1-115.2,0-172.7
				c0-11.7,6.5-20.5,16.7-23.5c10.5-3.1,20.8,0.9,27.3,10.5C166.3,145.1,166.7,145.6,167.4,146.6z"/>
		</g>
		<g>
			<path class="st0" d="M1618.7,212.6c0-18,0-36.1,0-54.1c0-14.6,10-25.3,23.3-25.4c13.7-0.1,23.7,10.7,23.7,25.5
				c0,34.4,0,68.7,0,103.1c0,24.4,17,43.7,39.9,45.8c25.2,2.3,46.3-12.9,51-37.3c0.7-3.5,0.8-7.2,0.8-10.8c0.1-33.7,0-67.5,0-101.2
				c0-12.9,7-22.2,18.2-24.7c13.7-3.1,28.6,8.1,28.6,22.1c0.2,37.3,0.7,74.7-0.2,112c-1,41.7-35.6,79.3-77.3,85.8
				c-57.9,9.1-108.1-33.7-108.2-92.4C1618.7,245,1618.7,228.8,1618.7,212.6z"/>
		</g>
		<g>
			<path class="st0" d="M803.5,354.9c-55,0.2-103.1-40.4-111.5-93.9c-8.7-55.4,27.1-109.4,82.2-123.9c35.9-9.4,68.7-2.1,98.5,19.5
				c11.1,8,13.8,23.2,6.4,33.3c-7.8,10.8-22.2,12.8-33.8,4.6c-26.9-18.9-58.8-18.7-83,0.6c-21.8,17.4-30,45.4-20.6,70.5
				c9.7,25.9,36.1,43.2,64.1,42.2c14.7-0.5,27.9-5.5,39.8-14.1c6.1-4.4,12.9-5.8,20.1-3.7c9.1,2.6,15.6,8.2,17.1,18
				c1.6,10.1-2,18.3-10.1,24.3C853.4,346.5,827.5,354.8,803.5,354.9z"/>
		</g>
		<g>
			<path class="st0" d="M975.7,244.1c0,29,0.1,58.1,0,87.1c0,10.3-6.1,18.9-15.2,22.2c-9.6,3.5-20.1,0.9-26.7-6.6
				c-3.9-4.4-6-9.6-6-15.5c0-58.1-0.1-116.1,0-174.2c0-13.7,10.7-23.8,24.1-23.7c13.6,0.1,23.6,10.1,23.7,24
				C975.8,186.3,975.7,215.2,975.7,244.1z"/>
		</g>
		<g>
			<path class="st0" d="M614.1,244.3c0-28.7-0.1-57.4,0-86.1c0.1-16.2,13-26.9,28.8-24.2c10.8,1.9,18.7,11.1,19,22.6
				c0.2,7.8,0.1,15.7,0.1,23.5c0,50.1,0,100.1,0,150.2c0,17.7-16.1,29.1-32.3,23.2c-9.5-3.5-15.5-12.2-15.6-23
				C614.1,301.7,614.1,273,614.1,244.3z"/>
		</g>
		<g>
			<path class="st0" d="M30,244c0-28.6-0.1-57.1,0-85.7c0.1-16.5,12.6-27,28.5-24.4c9.7,1.6,17.4,9.3,18.9,19.1
				c0.3,2,0.4,4.1,0.4,6.1c0,56.8,0.1,113.6,0,170.4c0,15.4-10.4,25.9-24.7,25.4c-13.2-0.5-23-10.5-23.1-24.2c-0.1-24,0-48,0-72
				C30,253.8,30,248.9,30,244z"/>
		</g>
		<g>
			<path class="st0" d="M662.4,73.3C662,77,662,80.8,661,84.4c-3,11.4-13.7,18.6-25.2,17.5c-11.6-1.2-20.9-10.7-21.6-22.4
				c-0.3-4.2-0.2-8.5,0-12.7c0.6-12.6,11.1-22.4,23.9-22.4c13,0,23.2,9.5,23.9,22.3c0.1,2.2,0,4.4,0,6.6
				C662.1,73.2,662.3,73.2,662.4,73.3z"/>
		</g>
		<g>
			<path class="st0" d="M975.9,73.2c-0.2,3.1-0.1,6.3-0.7,9.3c-2.4,11.9-12.5,19.8-24.2,19.4c-11.7-0.4-21.8-9.6-22.9-21.5
				c-0.5-5.7-0.5-11.7,0.5-17.3c2.3-12.3,13.2-19.8,26-18.6c11.9,1.1,20.8,10.8,21.2,23.1c0.1,1.9,0,3.8,0,5.6
				C975.8,73.2,975.9,73.2,975.9,73.2z"/>
		</g>
		<g>
			<path class="st0" d="M29.7,73c0.3-3.6,0.2-7.2,1-10.7c2.8-11.7,13.3-18.9,25.7-17.8c11.4,1,20.2,9.8,21.1,21.5
				c0.4,4.8,0.4,9.7-0.1,14.5C76.4,92.9,66,102.1,53.7,102c-12.4-0.1-22.7-9.9-23.6-22.3c-0.1-2.2,0-4.4,0-6.6
				C29.9,73.1,29.8,73,29.7,73z"/>
		</g>
		<g>
			<path class="st0" d="M2278.3,11.6c3.6,4.8,6.5,8.6,9.7,12.8c3.1-4.1,5.9-8,9.5-12.8c0.9,2.5,1.9,3.9,2,5.3
				c0.2,6.3,0.2,12.5,0,18.8c-0.1,1.3-1.5,2.6-2.2,3.9c-0.7-1.4-1.8-2.7-1.9-4.1c-0.3-4-0.1-8-0.1-13.3c-1.9,2.4-2.9,3.6-3.9,4.9
				c-3,4-3.7,4-6.8-0.1c-0.9-1.2-1.8-2.4-3.7-4.9c0,5.5,0.2,9.6-0.1,13.7c-0.1,1.3-1.5,2.5-2.3,3.8c-0.6-1.3-1.8-2.5-1.9-3.8
				c-0.2-6.3-0.2-12.5,0-18.8C2276.6,15.5,2277.4,14.1,2278.3,11.6z"/>
		</g>
		<g>
			<path class="st0" d="M2263.2,17.4c0,6.6,0.1,12.5-0.1,18.5c0,1.3-1.1,2.5-1.8,3.8c-0.7-1.3-2.1-2.6-2.1-3.9
				c-0.2-5.9-0.1-11.8-0.1-18.4c-2.1,0-3.8,0.3-5.4-0.1c-1-0.2-1.7-1.4-2.6-2.1c0.8-0.8,1.6-2.3,2.4-2.3c5-0.2,10-0.3,15,0
				c0.9,0,1.8,1.7,2.7,2.5c-0.9,0.7-1.7,1.7-2.7,1.9C2267,17.6,2265.4,17.4,2263.2,17.4z"/>
		</g>
		<g>
			<path class="st1" d="M2106.8,144c-19.5,0-38.9,0.1-58.4-0.1c-13.5-0.1-22-11.6-18.1-24c2.2-6.9,6.9-11,14.1-12.3
				c2-0.4,4.1-0.4,6.1-0.4c37.8,0,75.6,0,113.4,0c10.8,0,18.1,5.3,20,14.2c2.6,12.1-5.9,22.4-18.7,22.5
				C2145.8,144.1,2126.3,144,2106.8,144z"/>
		</g>
		<g>
			<path class="st1" d="M2106.8,294.6c-19.5,0-38.9,0.1-58.4,0c-13.5-0.1-22-11.6-18.1-24c2.2-6.9,7-11,14.1-12.3
				c1.8-0.3,3.7-0.4,5.6-0.4c38.1,0,76.2,0,114.4,0c10.4,0,17.7,5.4,19.5,14.2c2.5,11.9-5.8,22.3-18.3,22.5
				C2146.1,294.7,2126.5,294.6,2106.8,294.6z"/>
		</g>
		<g>
			<path class="st0" d="M2046,182.9c19.6,0,39.2-0.1,58.8,0c11.4,0.1,19.1,8.3,18.2,19.3c-0.6,8.2-6.1,14.4-14.3,15.8
				c-1.8,0.3-3.7,0.5-5.6,0.5c-38,0-75.9,0-113.9,0c-10,0-16.8-4.7-19.1-12.8c-3.2-11.8,5-22.6,17.5-22.7
				C2007,182.8,2026.5,182.9,2046,182.9z"/>
		</g>
		<g>
			<path class="st1" d="M1990.3,144c-16.6,1.3-24.9-13.4-20.2-25.2c4.4-11.3,16-13.9,29.8-10.3c9.3,2.4,14.3,12.9,11.6,22.1
				C2009,139.4,2001.7,144,1990.3,144z"/>
		</g>
		<g>
			<path class="st1" d="M1990,294.6c-16,1.3-24.5-13.2-19.9-25.1c4.5-11.5,16.2-13.9,29.7-10.5c9.4,2.4,14.4,12.8,11.8,22.1
				C2009,290.1,2001.8,294.6,1990,294.6z"/>
		</g>
		<g>
			<path class="st0" d="M2162.6,218.5c-10.9,0-17.9-4.1-20.1-12.7c-0.9-3.3-1-7.3,0.1-10.5c4.2-12.5,15.3-14.4,28.6-11.5
				c9.5,2.1,14.5,12.4,11.9,21.9C2180.7,214.2,2173.8,218.5,2162.6,218.5z"/>
		</g>
	</g>
	<g>
		<path class="st0" d="M118.6,481.3H48c1.2,6,4.5,10.8,9.7,14.3c5.2,3.5,11.7,5.3,19.4,5.3c9.9,0,18-3,24.4-8.9l11.3,11.8
			c-4,4.4-9.2,7.7-15.3,10c-6.2,2.2-13.1,3.4-20.9,3.4c-9.9,0-18.6-1.8-26.1-5.4c-7.5-3.6-13.3-8.5-17.4-14.9
			c-4.1-6.4-6.1-13.6-6.1-21.7c0-8,2-15.1,6-21.5c4-6.4,9.5-11.4,16.6-14.9c7.1-3.6,15-5.4,23.9-5.4c8.8,0,16.6,1.8,23.5,5.3
			s12.3,8.5,16.2,14.8c3.9,6.4,5.8,13.8,5.8,22.1C118.9,477,118.8,478.9,118.6,481.3z M56.4,454.2c-4.7,3.6-7.5,8.4-8.5,14.5h51
			c-0.9-5.9-3.6-10.7-8.3-14.4c-4.6-3.7-10.3-5.5-17.2-5.5C66.7,448.7,61,450.5,56.4,454.2z"/>
		<path class="st0" d="M279.6,442.4c6.6,6,9.9,14.9,9.9,26.9v46.8h-21v-44.4c0-7.1-1.7-12.5-5.2-16.2c-3.5-3.6-8.5-5.4-15-5.4
			c-7.1,0-12.7,2.1-17,6.4c-4.3,4.2-6.4,10.3-6.4,18.1v41.5h-21v-44.4c0-7.1-1.7-12.5-5.2-16.2c-3.5-3.6-8.5-5.4-15-5.4
			c-7.2,0-12.9,2.1-17.1,6.3c-4.2,4.2-6.3,10.3-6.3,18.2v41.5h-21v-81.7h20v10.4c3.4-3.7,7.6-6.5,12.6-8.4
			c5.1-1.9,10.7-2.9,16.8-2.9c6.7,0,12.7,1.1,17.9,3.4s9.3,5.7,12.4,10.2c3.7-4.3,8.5-7.6,14.3-10c5.8-2.4,12.3-3.6,19.4-3.6
			C264,433.4,272.9,436.4,279.6,442.4z"/>
		<path class="st0" d="M389.8,438.6c6.9,3.5,12.3,8.4,16.2,14.7c3.9,6.3,5.9,13.6,5.9,21.9s-2,15.6-5.9,22
			c-3.9,6.4-9.3,11.3-16.2,14.8c-6.9,3.5-14.7,5.2-23.5,5.2c-12.1,0-21.7-3.7-28.8-11v39.6h-21V434.3h20v10.7
			c3.5-3.9,7.8-6.8,12.9-8.7c5.1-1.9,10.7-2.9,16.9-2.9C375,433.4,382.9,435.2,389.8,438.6z M383,493.7c5-4.7,7.5-10.9,7.5-18.5
			s-2.5-13.8-7.5-18.5c-5-4.7-11.4-7-19.1-7c-5.1,0-9.6,1-13.6,3.1c-4,2.1-7.2,5.1-9.6,9c-2.4,3.9-3.5,8.4-3.5,13.5
			c0,5.1,1.2,9.6,3.5,13.5c2.4,3.9,5.6,6.9,9.6,9c4,2.1,8.6,3.1,13.6,3.1C371.7,500.8,378,498.4,383,493.7z"/>
		<path class="st0" d="M447.8,511.8c-7.3-3.6-13-8.5-17.1-14.9c-4.1-6.4-6.1-13.6-6.1-21.7c0-8.1,2-15.3,6.1-21.6
			c4.1-6.3,9.8-11.3,17.1-14.8c7.3-3.6,15.5-5.4,24.6-5.4c9.2,0,17.5,1.8,24.8,5.4c7.3,3.6,13,8.5,17.1,14.8
			c4.1,6.3,6.1,13.5,6.1,21.6c0,8.1-2,15.3-6.1,21.7c-4.1,6.4-9.8,11.4-17.1,14.9c-7.3,3.6-15.5,5.4-24.8,5.4
			C463.3,517.2,455.1,515.4,447.8,511.8z M491.6,493.7c5.1-4.7,7.6-10.9,7.6-18.5s-2.5-13.8-7.6-18.5c-5.1-4.7-11.5-7-19.2-7
			c-7.7,0-14.1,2.3-19.1,7c-5,4.7-7.5,10.9-7.5,18.5s2.5,13.8,7.5,18.5c5,4.7,11.4,7,19.1,7C480.1,500.8,486.5,498.4,491.6,493.7z"
			/>
		<path class="st0" d="M678.3,434.3l-33.2,81.7h-20.2l-23.2-56.3l-23.6,56.3h-20.2l-33-81.7h19.9l23.7,60.3l24.8-60.3H611l24.2,60.6
			l24.4-60.6H678.3z"/>
		<path class="st0" d="M774.5,481.3h-70.6c1.2,6,4.5,10.8,9.7,14.3c5.2,3.5,11.7,5.3,19.4,5.3c9.9,0,18-3,24.4-8.9l11.3,11.8
			c-4,4.4-9.2,7.7-15.3,10c-6.2,2.2-13.1,3.4-20.9,3.4c-9.9,0-18.6-1.8-26.1-5.4c-7.5-3.6-13.3-8.5-17.4-14.9
			c-4.1-6.4-6.1-13.6-6.1-21.7c0-8,2-15.1,6-21.5c4-6.4,9.5-11.4,16.6-14.9c7.1-3.6,15-5.4,23.9-5.4c8.8,0,16.6,1.8,23.5,5.3
			s12.3,8.5,16.2,14.8c3.9,6.4,5.8,13.8,5.8,22.1C774.8,477,774.7,478.9,774.5,481.3z M712.2,454.2c-4.7,3.6-7.5,8.4-8.5,14.5h51
			c-0.9-5.9-3.6-10.7-8.3-14.4c-4.6-3.7-10.3-5.5-17.2-5.5C722.6,448.7,716.9,450.5,712.2,454.2z"/>
		<path class="st0" d="M847,433.4v18.2c-1.8-0.3-3.4-0.5-4.9-0.5c-8.2,0-14.6,2.2-19.2,6.5c-4.6,4.3-6.9,10.6-6.9,18.8v39.6h-21
			v-81.7h20v11.9C821.1,437.7,831.8,433.4,847,433.4z"/>
		<path class="st0" d="M966.3,511.6c-2.5,1.8-5.5,3.2-9,4.1c-3.5,0.9-7.3,1.4-11.2,1.4c-9.9,0-17.5-2.3-22.9-7
			c-5.4-4.7-8.1-11.5-8.1-20.5v-39.3h-14.8V435h14.8v-18.7h21V435h24.1v15.3h-24.1v38.9c0,4,1.1,7,3.2,9.1c2.1,2.1,5.2,3.1,9.3,3.1
			c4.7,0,8.6-1.1,11.8-3.4L966.3,511.6z"/>
		<path class="st0" d="M996.4,511.8c-7.3-3.6-13-8.5-17.1-14.9c-4.1-6.4-6.1-13.6-6.1-21.7c0-8.1,2-15.3,6.1-21.6
			c4.1-6.3,9.8-11.3,17.1-14.8c7.3-3.6,15.5-5.4,24.6-5.4c9.2,0,17.5,1.8,24.8,5.4c7.3,3.6,13,8.5,17.1,14.8
			c4.1,6.3,6.1,13.5,6.1,21.6c0,8.1-2,15.3-6.1,21.7c-4.1,6.4-9.8,11.4-17.1,14.9c-7.3,3.6-15.5,5.4-24.8,5.4
			C1011.9,517.2,1003.7,515.4,996.4,511.8z M1040.2,493.7c5.1-4.7,7.6-10.9,7.6-18.5s-2.5-13.8-7.6-18.5c-5.1-4.7-11.5-7-19.2-7
			c-7.7,0-14.1,2.3-19.1,7c-5,4.7-7.5,10.9-7.5,18.5s2.5,13.8,7.5,18.5c5,4.7,11.4,7,19.1,7C1028.7,500.8,1035.1,498.4,1040.2,493.7
			z"/>
		<path class="st0" d="M1219.8,481.3h-70.6c1.2,6,4.5,10.8,9.7,14.3c5.2,3.5,11.7,5.3,19.4,5.3c9.9,0,18-3,24.4-8.9l11.3,11.8
			c-4,4.4-9.2,7.7-15.3,10c-6.2,2.2-13.1,3.4-20.9,3.4c-9.9,0-18.6-1.8-26.1-5.4c-7.5-3.6-13.3-8.5-17.4-14.9
			c-4.1-6.4-6.1-13.6-6.1-21.7c0-8,2-15.1,6-21.5c4-6.4,9.5-11.4,16.6-14.9c7.1-3.6,15-5.4,23.9-5.4c8.8,0,16.6,1.8,23.5,5.3
			c6.9,3.5,12.3,8.5,16.2,14.8c3.9,6.4,5.8,13.8,5.8,22.1C1220.2,477,1220.1,478.9,1219.8,481.3z M1157.6,454.2
			c-4.7,3.6-7.5,8.4-8.5,14.5h51c-0.9-5.9-3.6-10.7-8.3-14.4c-4.6-3.7-10.3-5.5-17.2-5.5C1168,448.7,1162.3,450.5,1157.6,454.2z"/>
		<path class="st0" d="M1328.5,402.5v113.6h-20.2v-10.6c-3.5,3.9-7.8,6.8-12.9,8.7c-5.1,1.9-10.8,2.9-16.9,2.9
			c-8.6,0-16.4-1.7-23.3-5.2c-6.9-3.5-12.3-8.4-16.3-14.8c-3.9-6.4-5.9-13.7-5.9-22s2-15.6,5.9-21.9c3.9-6.3,9.3-11.2,16.3-14.7
			c6.9-3.5,14.7-5.2,23.3-5.2c5.9,0,11.4,0.9,16.3,2.8c4.9,1.8,9.1,4.6,12.6,8.3v-41.9H1328.5z M1294.6,497.6c4-2.1,7.2-5.1,9.6-9
			c2.4-3.9,3.5-8.4,3.5-13.5c0-5.1-1.2-9.6-3.5-13.5c-2.4-3.9-5.6-6.9-9.6-9c-4-2.1-8.6-3.1-13.6-3.1s-9.6,1-13.6,3.1
			c-4,2.1-7.2,5.1-9.6,9c-2.4,3.9-3.5,8.4-3.5,13.5c0,5.1,1.2,9.6,3.5,13.5c2.4,3.9,5.6,6.9,9.6,9c4,2.1,8.6,3.1,13.6,3.1
			S1290.6,499.7,1294.6,497.6z"/>
		<path class="st0" d="M1443.1,434.3v81.7h-20v-10.4c-3.4,3.7-7.6,6.5-12.6,8.5c-5.1,2-10.5,3-16.3,3c-12,0-21.5-3-28.4-9.1
			c-6.9-6.1-10.4-15.1-10.4-27v-46.7h21v44.1c0,7.3,1.8,12.8,5.5,16.5c3.6,3.6,8.8,5.4,15.6,5.4c7.5,0,13.5-2.1,17.9-6.4
			c4.4-4.2,6.7-10.3,6.7-18.3v-41.3H1443.1z"/>
		<path class="st0" d="M1486.9,511.8c-7.4-3.6-13.2-8.5-17.3-14.9c-4.2-6.4-6.2-13.6-6.2-21.7c0-8.1,2.1-15.3,6.2-21.6
			c4.2-6.3,9.9-11.3,17.3-14.8c7.4-3.6,15.7-5.4,25.2-5.4c8.9,0,16.6,1.6,23.3,4.9c6.7,3.3,11.7,8,15.1,14.1l-16.2,8.6
			c-2.6-3.8-5.8-6.6-9.7-8.5c-3.9-1.9-8.1-2.8-12.7-2.8c-7.9,0-14.4,2.3-19.5,7c-5.2,4.6-7.7,10.8-7.7,18.6c0,7.8,2.6,14,7.7,18.6
			c5.1,4.6,11.6,7,19.6,7c4.6,0,8.8-0.9,12.7-2.8c3.9-1.9,7.1-4.7,9.7-8.5l16.2,8.6c-3.5,6.1-8.6,10.8-15.2,14.2
			c-6.7,3.3-14.4,5-23.2,5C1502.7,517.2,1494.3,515.4,1486.9,511.8z"/>
		<path class="st0" d="M1633.3,442.1c7,5.8,10.5,14.5,10.5,26.1v47.9H1624v-10c-2.6,3.6-6.3,6.3-11,8.2c-4.8,1.9-10.5,2.8-17.3,2.8
			s-12.6-1-17.7-3.1c-5.1-2.1-9-5-11.7-8.7c-2.8-3.7-4.1-7.9-4.1-12.6c0-7.3,3-13.2,9-17.7c6-4.4,15.5-6.7,28.4-6.7h23.2v-1.2
			c0-5.7-1.9-10.1-5.6-13.2c-3.8-3.1-9.3-4.6-16.8-4.6c-5.1,0-10,0.7-14.9,2.1c-4.9,1.4-9,3.4-12.4,6l-8.3-13.9
			c4.7-3.3,10.4-5.8,17-7.5c6.6-1.7,13.6-2.6,21-2.6C1616.2,433.4,1626.3,436.3,1633.3,442.1z M1614.1,499.9c4.1-2.2,7-5.3,8.7-9.4
			V481h-21.7c-12.1,0-18.2,3.6-18.2,10.9c0,3.5,1.5,6.2,4.5,8.3c3,2,7.2,3.1,12.6,3.1C1605.3,503.2,1610,502.1,1614.1,499.9z"/>
		<path class="st0" d="M1724.8,511.6c-2.5,1.8-5.5,3.2-9,4.1c-3.5,0.9-7.3,1.4-11.2,1.4c-9.9,0-17.5-2.3-22.9-7
			c-5.4-4.7-8.1-11.5-8.1-20.5v-39.3h-14.8V435h14.8v-18.7h21V435h24.1v15.3h-24.1v38.9c0,4,1.1,7,3.2,9.1c2.1,2.1,5.2,3.1,9.3,3.1
			c4.7,0,8.6-1.1,11.8-3.4L1724.8,511.6z"/>
		<path class="st0" d="M1823.4,481.3h-70.6c1.2,6,4.5,10.8,9.7,14.3c5.2,3.5,11.7,5.3,19.4,5.3c9.9,0,18-3,24.4-8.9l11.3,11.8
			c-4,4.4-9.2,7.7-15.3,10c-6.2,2.2-13.1,3.4-20.9,3.4c-9.9,0-18.6-1.8-26.1-5.4c-7.5-3.6-13.3-8.5-17.4-14.9
			c-4.1-6.4-6.1-13.6-6.1-21.7c0-8,2-15.1,6-21.5c4-6.4,9.5-11.4,16.6-14.9c7.1-3.6,15-5.4,23.9-5.4c8.8,0,16.6,1.8,23.5,5.3
			c6.9,3.5,12.3,8.5,16.2,14.8c3.9,6.4,5.8,13.8,5.8,22.1C1823.7,477,1823.6,478.9,1823.4,481.3z M1761.1,454.2
			c-4.7,3.6-7.5,8.4-8.5,14.5h51c-0.9-5.9-3.6-10.7-8.3-14.4c-4.6-3.7-10.3-5.5-17.2-5.5C1771.5,448.7,1765.8,450.5,1761.1,454.2z"
			/>
	</g>
	<g>
	</g>
</g>
</svg>
